<?xml version="1.0" encoding="utf-8"?>
<!-- Generator: Adobe Illustrator 25.0.0, SVG Export Plug-In . SVG Version: 6.00 Build 0)  -->
<svg version="1.1" id="Layer_1" xmlns="http://www.w3.org/2000/svg" xmlns:xlink="http://www.w3.org/1999/xlink" x="0px" y="0px"
	 viewBox="0 0 560 288" style="enable-background:new 0 0 560 288;" xml:space="preserve">
<style type="text/css">
	.st0{fill:#F2C500;}
	.st1{fill:#F59D00;}
	.st2{fill:#E87E04;}
	.st3{fill:#808285;}
	.st4{fill:#603813;}
</style>
<path class="st0" d="M537.89,288H22.11C9.9,288,0,280.03,0,270.19V202.1c0-9.84,9.9-17.81,22.11-17.81
	c27.58,0,50.02-18.07,50.02-40.29c0-22.22-22.44-40.29-50.02-40.29C9.9,103.71,0,95.74,0,85.9V17.81C0,7.97,9.9,0,22.11,0h515.78
	C550.1,0,560,7.97,560,17.81v68.13c0,9.62-9.49,17.5-21.43,17.8c-64.1,1.59-64.25,78.91,0,80.51c11.94,0.3,21.43,8.18,21.43,17.8
	v68.13C560,280.03,550.1,288,537.89,288z"/>
<path class="st1" d="M538.57,103.75c11.94-0.3,21.43-8.18,21.43-17.8V17.81C560,7.98,550.1,0,537.89,0H222.22v288h315.67
	c12.21,0,22.11-7.97,22.11-17.81v-68.13c0-9.62-9.49-17.5-21.43-17.8C474.47,182.66,474.32,105.34,538.57,103.75z"/>
<rect x="178.01" class="st2" width="44.22" height="288"/>
<g>
	<path class="st3" d="M426.29,89.12H288.44c-12.21,0-22.11-7.97-22.11-17.81c0-9.84,9.9-17.81,22.11-17.81h137.85
		c12.21,0,22.11,7.97,22.11,17.81S438.51,89.12,426.29,89.12z"/>
	<path class="st3" d="M426.29,224.5H288.44c-12.21,0-22.11-7.97-22.11-17.81c0-9.84,9.9-17.81,22.11-17.81h137.85
		c12.21,0,22.11,7.97,22.11,17.81C448.41,216.53,438.51,224.5,426.29,224.5z"/>
</g>
<g>
	<g>
		<path class="st4" d="M309.59,171.47h-9.76v-58.95l-9.91,6.08v-10.1l9.91-6.6h9.76V171.47z"/>
		<path class="st4" d="M335.45,170.13c-2.73-1.37-4.94-3.37-6.65-5.98c-1.71-2.62-2.85-5.76-3.42-9.43v-0.05h9.76v0.05
			c0.35,2.55,1.37,4.54,3.06,5.96c1.69,1.42,3.89,2.13,6.6,2.13c3.13,0,5.54-1.04,7.25-3.13c1.71-2.09,2.56-5.03,2.56-8.83V145
			c0-3.76-0.85-6.69-2.56-8.78c-1.71-2.09-4.12-3.13-7.25-3.13c-1.69,0-3.32,0.48-4.88,1.44c-1.56,0.96-2.94,2.3-4.12,4.02h-8.9
			v-36.65h35.46v9.28h-25.7v15.65c1.21-0.99,2.57-1.75,4.07-2.3c1.5-0.54,3.03-0.81,4.59-0.81c4.02,0,7.46,0.83,10.31,2.49
			c2.86,1.66,5.03,4.08,6.51,7.27c1.48,3.19,2.23,7.03,2.23,11.53v5.84c0,4.5-0.77,8.34-2.3,11.53c-1.53,3.19-3.76,5.62-6.7,7.3
			c-2.94,1.68-6.46,2.51-10.58,2.51C341.29,172.18,338.18,171.5,335.45,170.13z"/>
		<path class="st4" d="M383.78,166.97c-3.37-3.48-5.05-8.33-5.05-14.55v-31.63c0-6.25,1.69-11.11,5.07-14.57
			c3.38-3.46,8.31-5.19,14.79-5.19c6.51,0,11.44,1.72,14.81,5.17c3.37,3.45,5.05,8.31,5.05,14.59v31.63
			c0,6.25-1.69,11.11-5.07,14.57c-3.38,3.46-8.31,5.19-14.79,5.19C392.08,172.18,387.15,170.45,383.78,166.97z M406.22,160.2
			c1.64-1.8,2.46-4.39,2.46-7.78v-31.63c0-3.38-0.81-5.97-2.44-7.78c-1.63-1.8-4.18-2.7-7.66-2.7c-3.48,0-6.03,0.9-7.66,2.7
			c-1.63,1.8-2.44,4.4-2.44,7.78v31.63c0,3.38,0.82,5.97,2.46,7.78c1.64,1.8,4.19,2.7,7.63,2.7S404.58,162,406.22,160.2z"/>
	</g>
</g>
<g>
	<g>
		<path class="st4" d="M274.88,1.6h2.49v17.76h-2.49V1.6z M275.96,9.49h6.05c0.47,0,0.89-0.11,1.26-0.34
			c0.37-0.23,0.65-0.55,0.85-0.97c0.2-0.42,0.3-0.9,0.3-1.45c0-0.54-0.1-1.03-0.3-1.45c-0.2-0.42-0.48-0.74-0.84-0.97
			c-0.36-0.23-0.78-0.34-1.26-0.34h-6.05V1.6h5.96c1.03,0,1.93,0.21,2.7,0.63c0.78,0.42,1.38,1.02,1.81,1.8
			c0.43,0.78,0.64,1.67,0.64,2.69c0,1.02-0.22,1.91-0.65,2.69c-0.43,0.78-1.04,1.38-1.81,1.8c-0.78,0.42-1.67,0.63-2.69,0.63h-5.96
			V9.49z M280.8,11.31l2.48-0.56l4.54,8.62h-2.95L280.8,11.31z"/>
		<path class="st4" d="M291.17,1.61h2.49v17.75h-2.49V1.61z M292.38,1.61h10.19v2.37h-10.19V1.61z M292.38,9.37h8.85v2.37h-8.85
			V9.37z M292.38,17h10.19v2.37h-10.19V17z"/>
		<path class="st4" d="M318.25,9.81v3.1c0,1.32-0.26,2.48-0.77,3.48c-0.51,1.01-1.24,1.78-2.18,2.33c-0.94,0.55-2.03,0.82-3.26,0.82
			c-1.25,0-2.35-0.26-3.3-0.77c-0.95-0.52-1.68-1.25-2.2-2.19c-0.52-0.94-0.78-2.04-0.78-3.28V8.06c0-1.32,0.26-2.48,0.77-3.48
			s1.24-1.78,2.18-2.33c0.94-0.55,2.03-0.82,3.27-0.82c1.02,0,1.96,0.22,2.81,0.65c0.86,0.44,1.58,1.05,2.15,1.85
			c0.58,0.8,0.97,1.72,1.17,2.77h-2.7c-0.15-0.59-0.4-1.1-0.75-1.53c-0.35-0.43-0.76-0.75-1.23-0.98c-0.47-0.22-0.96-0.34-1.46-0.34
			c-0.73,0-1.38,0.18-1.93,0.52c-0.55,0.35-0.98,0.84-1.28,1.47c-0.3,0.63-0.45,1.37-0.45,2.2v5.24c0,0.77,0.15,1.43,0.46,2.01
			c0.31,0.57,0.75,1.02,1.31,1.34c0.57,0.32,1.22,0.48,1.96,0.48c0.73,0,1.38-0.17,1.93-0.49c0.55-0.33,0.98-0.81,1.28-1.43
			c0.3-0.63,0.45-1.37,0.45-2.23v-0.77h-3.6V9.81H318.25z"/>
		<path class="st4" d="M324.77,19.36h-2.49V1.61h2.49V19.36z"/>
		<path class="st4" d="M332.07,19.3c-0.76-0.16-1.48-0.41-2.14-0.73c-0.66-0.33-1.28-0.73-1.86-1.22l1.55-1.9
			c0.68,0.59,1.42,1.03,2.23,1.32s1.7,0.44,2.65,0.44c1.29,0,2.28-0.24,2.99-0.71c0.71-0.48,1.06-1.15,1.06-2.02v-0.01
			c0-0.62-0.16-1.11-0.48-1.47c-0.32-0.36-0.74-0.63-1.25-0.81c-0.51-0.18-1.17-0.34-1.97-0.48c-0.02-0.01-0.05-0.01-0.08-0.01
			c-0.03,0-0.05,0-0.08-0.01l-0.18-0.04c-1.19-0.2-2.15-0.43-2.9-0.69c-0.74-0.26-1.38-0.72-1.91-1.4c-0.53-0.68-0.79-1.65-0.79-2.9
			V6.63c0-1.1,0.25-2.04,0.74-2.81c0.49-0.78,1.21-1.37,2.15-1.78c0.94-0.41,2.08-0.61,3.41-0.61c0.63,0,1.26,0.07,1.87,0.21
			c0.61,0.14,1.22,0.34,1.82,0.62c0.6,0.27,1.19,0.62,1.76,1.03l-1.42,1.98c-0.68-0.5-1.35-0.87-2.02-1.12
			c-0.67-0.25-1.34-0.37-2.02-0.37c-1.21,0-2.16,0.24-2.83,0.73c-0.67,0.48-1.01,1.17-1.01,2.06v0.01c0,0.61,0.17,1.09,0.52,1.44
			c0.35,0.35,0.78,0.61,1.29,0.78c0.52,0.17,1.23,0.34,2.15,0.52c0.03,0.01,0.06,0.01,0.09,0.02c0.03,0,0.06,0.01,0.09,0.02
			c0.04,0.01,0.09,0.02,0.13,0.02c0.05,0.01,0.09,0.02,0.13,0.02c1.07,0.22,1.97,0.48,2.69,0.78c0.72,0.3,1.32,0.79,1.81,1.46
			c0.48,0.67,0.73,1.59,0.73,2.75v0.02c0,1.08-0.26,2.01-0.77,2.78c-0.51,0.77-1.26,1.35-2.23,1.76c-0.97,0.4-2.15,0.6-3.52,0.6
			C333.64,19.55,332.83,19.47,332.07,19.3z"/>
		<path class="st4" d="M342.11,1.61h12.52v2.37h-12.52V1.61z M347.13,3.07h2.49v16.3h-2.49V3.07z"/>
		<path class="st4" d="M356.59,1.6h2.49v17.76h-2.49V1.6z M357.68,9.49h6.05c0.47,0,0.89-0.11,1.26-0.34
			c0.37-0.23,0.65-0.55,0.85-0.97c0.2-0.42,0.3-0.9,0.3-1.45c0-0.54-0.1-1.03-0.3-1.45c-0.2-0.42-0.48-0.74-0.84-0.97
			c-0.36-0.23-0.78-0.34-1.26-0.34h-6.05V1.6h5.96c1.03,0,1.93,0.21,2.7,0.63c0.78,0.42,1.38,1.02,1.81,1.8
			c0.43,0.78,0.64,1.67,0.64,2.69c0,1.02-0.22,1.91-0.65,2.69c-0.43,0.78-1.04,1.38-1.81,1.8c-0.78,0.42-1.67,0.63-2.69,0.63h-5.96
			V9.49z M362.51,11.31l2.48-0.56l4.54,8.62h-2.95L362.51,11.31z"/>
		<path class="st4" d="M377.72,1.61h2.12l6.54,17.75h-2.69l-4.92-14.32l-4.92,14.32h-2.69L377.72,1.61z M374.19,13.1h9.34v2.37
			h-9.34V13.1z"/>
		<path class="st4" d="M386.63,1.61h12.52v2.37h-12.52V1.61z M391.65,3.07h2.49v16.3h-2.49V3.07z"/>
		<path class="st4" d="M403.6,19.36h-2.49V1.61h2.49V19.36z"/>
		<path class="st4" d="M410.59,18.73c-0.94-0.54-1.67-1.31-2.19-2.29c-0.52-0.99-0.78-2.13-0.78-3.44V7.97
			c0-1.3,0.26-2.45,0.78-3.44c0.52-0.99,1.25-1.75,2.19-2.29c0.94-0.54,2.04-0.81,3.27-0.81c1.24,0,2.33,0.27,3.27,0.81
			c0.94,0.54,1.67,1.31,2.19,2.29c0.52,0.99,0.78,2.13,0.78,3.44V13c0,1.3-0.26,2.45-0.78,3.44c-0.52,0.99-1.25,1.75-2.19,2.29
			c-0.94,0.54-2.03,0.81-3.27,0.81C412.63,19.55,411.54,19.28,410.59,18.73z M415.8,16.6c0.56-0.33,0.99-0.8,1.29-1.4
			c0.3-0.61,0.46-1.31,0.46-2.11v-5.2c0-0.8-0.15-1.5-0.46-2.11c-0.31-0.61-0.74-1.07-1.29-1.4c-0.56-0.33-1.2-0.49-1.94-0.49
			s-1.38,0.17-1.93,0.49c-0.56,0.33-0.99,0.8-1.29,1.4c-0.3,0.61-0.46,1.31-0.46,2.11v5.2c0,0.8,0.15,1.5,0.46,2.11
			c0.31,0.61,0.74,1.07,1.29,1.4c0.56,0.33,1.2,0.49,1.93,0.49S415.24,16.93,415.8,16.6z"/>
		<path class="st4" d="M424.13,1.61h2.26l8.68,13.72l-0.29,0.32V1.61h2.47v17.74h-2.28L426.3,5.84l0.29-0.32v13.83h-2.47V1.61z"/>
		<path class="st4" d="M336.33,31.61h2.49v17.75h-2.49V31.61z M337.55,31.61h9.95v2.37h-9.95V31.61z M337.55,39.52h8.61v2.37h-8.61
			V39.52z"/>
		<path class="st4" d="M350.3,31.61h2.49v17.75h-2.49V31.61z M351.51,31.61h10.19v2.37h-10.19V31.61z M351.51,39.37h8.85v2.37h-8.85
			V39.37z M351.51,47h10.19v2.37h-10.19V47z"/>
		<path class="st4" d="M365.25,31.61h2.49v17.75h-2.49V31.61z M366.45,31.61h10.19v2.37h-10.19V31.61z M366.45,39.37h8.85v2.37
			h-8.85V39.37z M366.45,47h10.19v2.37h-10.19V47z"/>
	</g>
</g>
</svg>
